<?xml version="1.0" encoding="UTF-8" standalone="no"?>
<!-- Created with Inkscape (http://www.inkscape.org/) -->

<svg
   xmlns:osb="http://www.openswatchbook.org/uri/2009/osb"
   xmlns:dc="http://purl.org/dc/elements/1.1/"
   xmlns:cc="http://creativecommons.org/ns#"
   xmlns:rdf="http://www.w3.org/1999/02/22-rdf-syntax-ns#"
   xmlns:svg="http://www.w3.org/2000/svg"
   xmlns="http://www.w3.org/2000/svg"
   xmlns:sodipodi="http://sodipodi.sourceforge.net/DTD/sodipodi-0.dtd"
   xmlns:inkscape="http://www.inkscape.org/namespaces/inkscape"
   width="568.9516"
   height="332.46661"
   id="svg2"
   version="1.1"
   inkscape:version="0.48.4 r9939"
   sodipodi:docname="DeBonteKoeLogo.svg">
  <defs
     id="defs4">
    <linearGradient
       id="linearGradient3787"
       osb:paint="solid">
      <stop
         style="stop-color:#ffffff;stop-opacity:1;"
         offset="0"
         id="stop3789" />
    </linearGradient>
  </defs>
  <sodipodi:namedview
     id="base"
     pagecolor="#ffffff"
     bordercolor="#666666"
     borderopacity="1.0"
     inkscape:pageopacity="0.0"
     inkscape:pageshadow="2"
     inkscape:zoom="0.7"
     inkscape:cx="102.24452"
     inkscape:cy="180.34665"
     inkscape:document-units="px"
     inkscape:current-layer="layer1"
     showgrid="false"
     inkscape:window-width="1600"
     inkscape:window-height="850"
     inkscape:window-x="0"
     inkscape:window-y="25"
     inkscape:window-maximized="1"
     width="1052.36px"
     fit-margin-top="0"
     fit-margin-left="0"
     fit-margin-right="0"
     fit-margin-bottom="0" />
  <metadata
     id="metadata7">
    <rdf:RDF>
      <cc:Work
         rdf:about="">
        <dc:format>image/svg+xml</dc:format>
        <dc:type
           rdf:resource="http://purl.org/dc/dcmitype/StillImage" />
        <dc:title />
      </cc:Work>
    </rdf:RDF>
  </metadata>
  <g
     inkscape:label="Layer 1"
     inkscape:groupmode="layer"
     id="layer1"
     transform="translate(-1.0484083,-313.53957)">
    <g
       id="g3793"
       transform="translate(-70,-148.57143)"
       style="stroke:none">
      <path
         sodipodi:nodetypes="ccccccccccccccccccccccccccccccccccccccccccccccccscccccccscccccccccccccccccccccccccccccccsscccsccccsccccccccccc"
         inkscape:connector-curvature="0"
         id="path2996"
         d="m 213.64726,673.80752 c -2.39911,0.12627 -7.3236,-2.27284 -7.3236,-2.27284 -25.12754,11.86929 -37.88072,35.86041 -37.88072,35.86041 l -9.21765,17.67767 c -15.15228,20.07678 -9.84898,14.2684 -23.61231,26.5165 -17.42513,11.49049 -28.91561,15.65736 -28.91561,15.65736 -3.66181,3.78807 -0.50508,5.05076 -3.66181,8.33376 -24.622468,3.91434 -27.526657,-4.16687 -27.526657,-4.16687 -1.894036,-1.26269 -5.42957,-6.566 -3.282996,-18.30902 6.81853,-11.61675 9.091373,-24.74874 9.091373,-24.74874 l 7.323606,-27.77919 c -5.303301,-9.47018 -0.252538,-17.42513 -0.252538,-17.42513 7.327509,-7.85423 8.754655,-12.62691 13.131982,-18.94036 2.77792,-3.53553 2.65165,-18.30902 4.54569,-17.93021 0,0 -1.26269,-3.03046 18.43528,-2.02031 0,0 5.13109,-1.13979 10.98541,-8.08121 6.70332,-4.75099 27.02158,-34.724 38.00699,-52.52794 l 26.26397,-52.78047 c 1.89404,-3.283 5.80838,-15.9099 8.08122,-17.42513 18.56155,-19.69797 61.6193,-34.34519 61.6193,-34.34519 5.68211,-1.26269 16.03618,-3.40926 19.44544,-3.28299 36.87057,-4.29315 55.55839,-11.36422 55.55839,-11.36422 39.77476,-5.80838 61.36677,4.04061 61.36677,4.04061 13.25825,1.38896 28.28426,-0.75761 40.91117,0.25254 25.75889,5.17703 51.51778,3.78807 51.51778,3.78807 13.76333,2.02031 44.19418,-4.54569 44.19418,-4.54569 1.51523,-1.13642 13.51078,3.53554 25.00127,1.01016 l 14.89975,-2.52538 c 5.17703,0.75761 16.16244,0.50507 16.16244,0.50507 0,0 8.20749,2.90419 14.89975,8.33376 0,0 8.83884,7.44988 11.11168,12.37437 0,0 4.79822,12.87944 5.05076,16.92005 l 1.01016,47.47717 c -4.29315,25.75889 -1.26269,68.69038 -1.26269,68.69038 l 0.25253,10.85914 c 3.283,7.32361 4.04061,12.6269 4.04061,12.6269 -1.13642,1.01015 -3.91433,-3.53553 -3.91433,-3.53553 0,7.07106 2.90418,11.11168 2.90418,11.11168 1.76777,1.01015 -6.52579,1.91072 6.56599,16.66751 -2.14657,1.01015 -5.55584,-3.53553 -5.55584,-3.53553 -0.37881,2.52538 2.77792,14.89975 2.77792,14.89975 -0.63135,2.65165 -3.03045,0.50508 -3.03045,0.50508 l 1.51523,14.14213 c -1.6415,2.02031 -3.78808,-2.52538 -3.78808,-2.52538 0,0 -0.37881,5.93465 -1.26269,4.04061 0,0 -0.12627,1.13642 -1.26269,-1.76777 -2.52538,11.36422 -5.3033,77.02414 -5.3033,77.02414 0.25254,6.31345 3.283,11.86929 3.283,11.86929 0,0 2.14657,3.78807 -1.01016,6.31345 -6.85958,5.48766 -23.48604,4.54569 -23.48604,4.54569 -5.68211,0.25254 -9.09138,-0.75762 -9.09138,-0.75762 -3.03046,-2.77792 3.03046,-6.81853 3.03046,-6.81853 10.10153,-17.67767 6.06092,-63.38707 6.06092,-63.38707 -1.38896,-5.93465 -11.11168,-27.27412 -11.11168,-27.27412 -4.92449,5.05076 -21.71828,68.69038 -21.71828,68.69038 -1.38896,3.40926 -1.51523,10.85914 -1.51523,10.85914 -1.89404,2.65165 2.02031,4.29314 -1.64149,7.3236 -2.09542,1.73414 -5.68211,3.78807 -5.68211,3.78807 -10.35406,1.76777 -16.16245,0.25254 -16.16245,0.25254 -9.59645,0 -13.00571,-3.53553 -13.00571,-3.53553 -1.38896,-4.9245 2.0203,-4.54568 2.0203,-4.54568 6.56599,-2.65165 7.95496,-5.05077 7.95496,-5.05077 7.57614,-7.70241 16.16244,-44.69925 16.16244,-44.69925 l -2.77792,-27.27412 -0.75762,-2.52538 c -6.31345,3.78807 -8.83883,-10.10153 -8.83883,-10.10153 l -6.31345,0.75761 c 0,0 -0.12628,9.21765 -2.27285,10.10153 -3.6618,0.37881 -5.3033,-9.59645 -5.3033,-9.59645 -34.34519,2.52538 -47.98224,-18.68782 -47.98224,-18.68782 -12.2353,6.41467 -12.29019,2.8621 -18.43529,4.29315 -6.31345,2.52538 -11.86929,-0.25254 -11.86929,-0.25254 -7.82868,0 -9.34391,-1.51523 -9.34391,-1.51523 -5.55584,0.50508 -8.83884,-1.01015 -8.83884,-1.01015 -38.13326,-4.04061 -56.316,-9.09137 -56.316,-9.09137 -13.20574,-5.40061 -15.1102,-7.78659 -23.99113,-7.32361 0,0 15.65737,40.91118 17.67768,43.18402 0,0 2.65165,19.95052 3.78807,19.69798 l 6.31345,18.18274 9.09137,17.42514 c 0,0 1.76777,6.69226 2.77792,6.56599 0,0 5.05077,10.6066 3.78808,12.12183 -3.03046,0.88388 -7.82869,-4.29315 -7.82869,-4.29315 2.14657,6.18718 0,12.37437 0,12.37437 0.54717,3.25544 -1.17851,3.87225 -1.76776,5.80838 -9.21764,2.65165 -15.65737,-0.50508 -15.65737,-0.50508 -4.41942,-6.06092 -1.76777,-10.85914 -1.76777,-10.85914 l 3.53553,-2.39912 c 0.72605,-1.01015 1.8403,-4.51983 -0.43207,-7.58403 -3.13108,-4.22212 -2.14855,-9.05191 -3.65588,-13.5029 -3.01468,-8.90196 -7.27626,-17.42513 -7.27626,-17.42513 -6.43972,-3.15673 -24.74873,-20.20304 -24.74873,-20.20304 -4.92449,-7.07106 1.18122,-10.19347 -1.01016,-16.92006 0,0 -8.75017,-20.78872 -18.05648,-27.27412 -1.26029,-0.87828 -5.6821,13.38452 -5.6821,13.38452 l -21.46574,66.16499 -2.77792,22.98097 -0.75762,9.59645 c -3.91434,4.79823 -9.73616,4.35292 -10.98541,4.04061 -6.06091,-1.51523 -16.92005,2.0203 -16.92005,2.0203 0,0 -5.30331,0.50508 -6.566,-3.283 1.38896,-5.80837 8.71257,-8.58629 8.71257,-8.58629 l 15.9099,-43.43656 c 0.60597,-9.81185 -2.69374,-10.43824 -4.04061,-15.65736 -1.76777,-5.93465 1.2627,-22.98097 1.2627,-22.98097 -23.48605,1.89404 -29.54697,-5.55584 -29.54697,-5.55584 l -5.05076,-4.79823 c -9.34391,-1.76777 -13.38452,-11.36421 -13.38452,-11.36421 l -9.09137,-1.76777 c 0,0 -2.52539,1.6415 -5.05077,2.02031 z"
         style="fill:#fa503a;fill-opacity:1;stroke:none;stroke-width:1px;stroke-linecap:butt;stroke-linejoin:miter;stroke-opacity:1" />
      <path
         inkscape:connector-curvature="0"
         id="path2998"
         d="m 621.24382,530.11332 -0.25254,90.66119 -1.76777,8.33376 2.27284,3.78807 -4.04061,9.34391 -1.26269,-66.92261 z"
         style="fill:#ffffff;fill-opacity:1;stroke:none;stroke-width:1px;stroke-linecap:butt;stroke-linejoin:miter;stroke-opacity:1" />
    </g>
    <path
       style="fill:#ffffff;fill-opacity:0;stroke:#000000;stroke-width:1px;stroke-linecap:butt;stroke-linejoin:miter;stroke-opacity:0"
       d="m 620.53572,539.68361 -3.92858,35 1.25,65.17857 3.21429,-6.96428 -2.32143,-3.57143 1.96429,-9.28572 z"
       id="path3810"
       inkscape:connector-curvature="0" />
  </g>
</svg>
